<?xml version="1.0" encoding="utf-8"?>
<!-- Generator: Adobe Illustrator 21.0.0, SVG Export Plug-In . SVG Version: 6.00 Build 0)  -->
<svg version="1.1" id="图层_1" xmlns="http://www.w3.org/2000/svg" xmlns:xlink="http://www.w3.org/1999/xlink" x="0px" y="0px"
	 viewBox="0 0 16 16" style="enable-background:new 0 0 16 16;" xml:space="preserve">
<path d="M7.5,9.8C7.4,9.9,7.3,10,7.2,10C7.1,10,7,10,6.9,9.9L5.5,8.4C5.3,8.3,5.3,8,5.5,7.8c0.1-0.1,0.2-0.1,0.3-0.1
	c0.1,0,0.2,0,0.3,0.1l1.1,1.1l2.7-2.7C10,6.1,10.1,6,10.2,6s0.2,0,0.3,0.1c0.2,0.2,0.2,0.5,0,0.7L7.5,9.8z M13.1,3.9
	c-0.5,0-1.6-0.2-2.7-0.6c-1.2-0.5-2-1-2.4-1.2C7.6,2.3,6.8,2.8,5.6,3.3C4.5,3.7,3.4,3.9,2.9,3.9v5c0,2.3,3.4,5.2,5.1,5.2
	c0.7,0,1.9-0.5,3.2-1.7c1.2-1.1,1.9-2.4,1.9-3.5L13.1,3.9z M8,15c-2.1,0-6-3.1-6-6.1V3.2C2,3.1,2.1,3,2.2,3h0.3c0,0,1.4,0,2.7-0.6
	c1.4-0.6,2.3-1.2,2.3-1.2L7.8,1c0,0,0.1,0,0.2,0c0.1,0,0.1,0,0.2,0l0.2,0.1c0,0,0.9,0.6,2.3,1.2S13.4,3,13.4,3h0.3
	C13.9,3,14,3.1,14,3.2v5.7C14,11.9,10.1,15,8,15L8,15z"/>
</svg>
