<?xml version="1.0" encoding="utf-8"?>
<!-- Generator: Adobe Illustrator 24.0.2, SVG Export Plug-In . SVG Version: 6.00 Build 0)  -->
<svg version="1.1" xmlns="http://www.w3.org/2000/svg" xmlns:xlink="http://www.w3.org/1999/xlink" x="0px" y="0px"
	 viewBox="0 0 16 16" style="enable-background:new 0 0 16 16;" xml:space="preserve">
<style type="text/css">
	.st0{opacity:0;clip-path:url(#SVGID_4_);}
	.st1{opacity:0.65;clip-path:url(#SVGID_6_);}
	.st2{opacity:0;clip-path:url(#SVGID_10_);}
	.st3{opacity:0.65;clip-path:url(#SVGID_12_);}
	.st4{opacity:0;clip-path:url(#SVGID_16_);}
	.st5{opacity:0.65;clip-path:url(#SVGID_18_);}
	.st6{opacity:0.65;clip-path:url(#SVGID_20_);}
	.st7{fill-opacity:0;}
	.st8{fill-rule:evenodd;clip-rule:evenodd;fill:#FFFFFF;fill-opacity:0;}
	.st9{fill-rule:evenodd;clip-rule:evenodd;}
	.st10{fill-rule:evenodd;clip-rule:evenodd;fill-opacity:0;}
	.st11{fill:#2C2C2C;}
	.st12{opacity:0;clip-path:url(#SVGID_22_);}
	.st13{clip-path:url(#SVGID_24_);enable-background:new    ;}
	.st14{clip-path:url(#SVGID_26_);}
	.st15{clip-path:url(#SVGID_28_);}
	.st16{clip-path:url(#SVGID_30_);}
	.st17{clip-path:url(#SVGID_32_);}
	.st18{opacity:0;clip-path:url(#SVGID_34_);}
	.st19{clip-path:url(#SVGID_36_);}
	.st20{clip-path:url(#SVGID_40_);fill:#FFFFFF;fill-opacity:0;}
	.st21{clip-path:url(#SVGID_42_);fill-opacity:0;}
	.st22{clip-path:url(#SVGID_44_);}
</style>
<g id="图层_1">
</g>
<g id="图层_2">
	<path class="st11" d="M8.5,15c-0.2,0-0.4-0.2-0.4-0.5V6.4c0-0.1,0-0.2,0.1-0.3l3.4-4.2H2.4l3.1,4.2c0.1,0.1,0.1,0.2,0.1,0.3v4.8
		l1.3,1.4C7,12.8,7.1,12.9,7.1,13c0,0.1,0,0.2-0.1,0.3c-0.1,0.1-0.2,0.1-0.3,0.1s-0.2,0-0.3-0.1l-1.5-1.6c-0.1-0.1-0.1-0.2-0.1-0.3
		V6.6L1.1,1.8C0.9,1.6,1,1.3,1.2,1.1C1.2,1,1.3,1,1.4,1h11.1c0.1,0,0.2,0,0.3,0.1C13,1.2,13,1.3,13,1.5c0,0.1,0,0.2-0.1,0.3L9,6.6
		v7.9C9,14.8,8.8,15,8.5,15L8.5,15z"/>
	<path class="st11" d="M14.5,8h-3C11.2,8,11,7.8,11,7.5v0C11,7.2,11.2,7,11.5,7h3C14.8,7,15,7.2,15,7.5v0C15,7.8,14.8,8,14.5,8z"/>
	<path class="st11" d="M14.5,11h-3c-0.3,0-0.5-0.2-0.5-0.5v0c0-0.3,0.2-0.5,0.5-0.5h3c0.3,0,0.5,0.2,0.5,0.5v0
		C15,10.8,14.8,11,14.5,11z"/>
	<path class="st11" d="M14.5,14h-3c-0.3,0-0.5-0.2-0.5-0.5v0c0-0.3,0.2-0.5,0.5-0.5h3c0.3,0,0.5,0.2,0.5,0.5v0
		C15,13.8,14.8,14,14.5,14z"/>
</g>
</svg>
