<?xml version="1.0" encoding="utf-8"?>
<!-- Generator: Adobe Illustrator 24.0.2, SVG Export Plug-In . SVG Version: 6.00 Build 0)  -->
<svg version="1.1" xmlns="http://www.w3.org/2000/svg" xmlns:xlink="http://www.w3.org/1999/xlink" x="0px" y="0px"
	 viewBox="0 0 16 16" style="enable-background:new 0 0 16 16;" xml:space="preserve">
<style type="text/css">
	.st0{opacity:0;clip-path:url(#SVGID_4_);}
	.st1{opacity:0.65;clip-path:url(#SVGID_6_);}
	.st2{opacity:0;clip-path:url(#SVGID_10_);}
	.st3{opacity:0.65;clip-path:url(#SVGID_12_);}
	.st4{opacity:0;clip-path:url(#SVGID_16_);}
	.st5{opacity:0.65;clip-path:url(#SVGID_18_);}
	.st6{opacity:0.65;clip-path:url(#SVGID_20_);}
	.st7{fill-opacity:0;}
	.st8{fill-rule:evenodd;clip-rule:evenodd;fill:#FFFFFF;fill-opacity:0;}
	.st9{fill-rule:evenodd;clip-rule:evenodd;}
	.st10{fill-rule:evenodd;clip-rule:evenodd;fill-opacity:0;}
	.st11{fill:#2C2C2C;}
	.st12{opacity:0;clip-path:url(#SVGID_22_);}
	.st13{clip-path:url(#SVGID_24_);enable-background:new    ;}
	.st14{clip-path:url(#SVGID_26_);}
	.st15{clip-path:url(#SVGID_28_);}
	.st16{clip-path:url(#SVGID_30_);}
	.st17{clip-path:url(#SVGID_32_);}
	.st18{opacity:0;clip-path:url(#SVGID_34_);}
	.st19{clip-path:url(#SVGID_36_);}
	.st20{clip-path:url(#SVGID_40_);fill:#FFFFFF;fill-opacity:0;}
	.st21{clip-path:url(#SVGID_42_);fill-opacity:0;}
	.st22{clip-path:url(#SVGID_44_);}
	.st23{opacity:0;clip-path:url(#SVGID_46_);}
	.st24{clip-path:url(#SVGID_48_);}
	.st25{opacity:0;clip-path:url(#SVGID_50_);}
	.st26{clip-path:url(#SVGID_52_);}
</style>
<g id="图层_1">
</g>
<g id="图层_2">
	<g>
		<defs>
			<rect id="SVGID_49_" width="16" height="16"/>
		</defs>
		<clipPath id="SVGID_2_">
			<use xlink:href="#SVGID_49_"  style="overflow:visible;"/>
		</clipPath>
		<rect x="-5" y="-5" style="opacity:0;clip-path:url(#SVGID_2_);" width="26" height="26"/>
	</g>
	<g>
		<defs>
			<path id="SVGID_51_" d="M12.1,12H2.5l1.6-4h9.6L12.1,12z M2.1,4h2.9l1.9,1.8h4.7v1.1h-8c-0.2,0-0.4,0.1-0.5,0.3l-1.1,2.8V4z
				 M14.5,6.9h-1.7V5.2c0-0.3-0.2-0.5-0.5-0.5H7.4L5.6,2.9c0,0-0.1,0-0.1,0h-4C1.2,2.9,1,3.1,1,3.4v9.2c0,0.3,0.2,0.5,0.5,0.5h10.9
				c0.2,0,0.4-0.1,0.5-0.3L15,7.6c0-0.1,0-0.1,0-0.2C15,7.2,14.8,6.9,14.5,6.9z"/>
		</defs>
		<clipPath id="SVGID_4_">
			<use xlink:href="#SVGID_51_"  style="overflow:visible;"/>
		</clipPath>
		<rect x="-4" y="-2.1" style="clip-path:url(#SVGID_4_);" width="24" height="20.2"/>
	</g>
</g>
</svg>
