<?xml version="1.0" encoding="utf-8"?>
<!-- Generator: Adobe Illustrator 24.0.2, SVG Export Plug-In . SVG Version: 6.00 Build 0)  -->
<svg version="1.1" id="图层_1" xmlns="http://www.w3.org/2000/svg" xmlns:xlink="http://www.w3.org/1999/xlink" x="0px" y="0px"
	 viewBox="0 0 16 16" style="enable-background:new 0 0 16 16;" xml:space="preserve">
<g id="图层_1_1_">
</g>
<path d="M12.1,12H2.5l1.6-4h9.6L12.1,12z M2.1,4H5l1.9,1.8h4.7v1.1h-8C3.4,6.9,3.2,7,3.1,7.2L2,10L2.1,4L2.1,4z M14.5,6.9h-1.7V5.2
	c0-0.3-0.2-0.5-0.5-0.5H7.4L5.6,2.9H5.5h-4C1.2,2.9,1,3.1,1,3.4v9.2c0,0.3,0.2,0.5,0.5,0.5h10.9c0.2,0,0.4-0.1,0.5-0.3L15,7.6
	c0-0.1,0-0.1,0-0.2C15,7.2,14.8,6.9,14.5,6.9z"/>
</svg>
