<?xml version="1.0" encoding="utf-8"?>
<!-- Generator: Adobe Illustrator 24.0.2, SVG Export Plug-In . SVG Version: 6.00 Build 0)  -->
<svg version="1.1" xmlns="http://www.w3.org/2000/svg" xmlns:xlink="http://www.w3.org/1999/xlink" x="0px" y="0px"
	 viewBox="0 0 16 16" style="enable-background:new 0 0 16 16;" xml:space="preserve">
<style type="text/css">
	.st0{opacity:0;clip-path:url(#SVGID_4_);}
	.st1{opacity:0.65;clip-path:url(#SVGID_6_);}
	.st2{opacity:0;clip-path:url(#SVGID_10_);}
	.st3{opacity:0.65;clip-path:url(#SVGID_12_);}
	.st4{opacity:0;clip-path:url(#SVGID_16_);}
	.st5{opacity:0.65;clip-path:url(#SVGID_18_);}
	.st6{opacity:0.65;clip-path:url(#SVGID_20_);}
	.st7{fill-opacity:0;}
	.st8{fill-rule:evenodd;clip-rule:evenodd;fill:#FFFFFF;fill-opacity:0;}
	.st9{fill-rule:evenodd;clip-rule:evenodd;}
	.st10{fill-rule:evenodd;clip-rule:evenodd;fill-opacity:0;}
	.st11{fill:#2C2C2C;}
	.st12{opacity:0;clip-path:url(#SVGID_22_);}
	.st13{clip-path:url(#SVGID_24_);enable-background:new    ;}
	.st14{clip-path:url(#SVGID_26_);}
	.st15{clip-path:url(#SVGID_28_);}
	.st16{clip-path:url(#SVGID_30_);}
	.st17{clip-path:url(#SVGID_32_);}
	.st18{opacity:0;clip-path:url(#SVGID_34_);}
	.st19{clip-path:url(#SVGID_36_);}
	.st20{clip-path:url(#SVGID_40_);fill:#FFFFFF;fill-opacity:0;}
	.st21{clip-path:url(#SVGID_42_);fill-opacity:0;}
	.st22{clip-path:url(#SVGID_44_);}
	.st23{opacity:0;clip-path:url(#SVGID_46_);}
	.st24{clip-path:url(#SVGID_48_);}
	.st25{opacity:0;clip-path:url(#SVGID_50_);}
	.st26{clip-path:url(#SVGID_52_);}
	.st27{fill:#111111;}
	.st28{fill:#FF4D4E;}
	.st29{clip-path:url(#SVGID_54_);}
</style>
<g id="图层_1">
</g>
<g id="图层_2">
	<g>
		<g>
			<g>
				<path d="M14.2,8.6c-0.3,0-0.5-0.2-0.5-0.5c0-2.8-2.2-5-5-5c-0.3,0-0.5-0.2-0.5-0.5s0.2-0.5,0.5-0.5c3.3,0,6,2.7,6,6
					C14.7,8.3,14.5,8.6,14.2,8.6z"/>
			</g>
			<g>
				<path d="M12.2,8.6c-0.3,0-0.5-0.2-0.5-0.5c0-1.7-1.3-3-3-3c-0.3,0-0.5-0.2-0.5-0.5s0.2-0.5,0.5-0.5c2.2,0,4,1.8,4,4
					C12.7,8.3,12.5,8.6,12.2,8.6z"/>
			</g>
		</g>
		<g>
			<path d="M3.9,2l0,1l1.4,1.4L4.9,4.7c-0.6,0.6-0.6,1.5,0,2.1l3.5,3.5c0.3,0.3,0.7,0.4,1.1,0.4s0.8-0.2,1.1-0.4l0.4-0.4l1.4,1.4
				l-0.7,0.7c-0.6,0.6-1.3,0.9-2.1,0.9c-0.8,0-1.6-0.3-2.1-0.9L3.2,7.9C2.6,7.3,2.3,6.6,2.3,5.8c0-0.8,0.3-1.6,0.9-2.1L3.9,3
				c0,0,0,0,0,0L3.9,2 M3.9,2C3.6,2,3.4,2.1,3.2,2.3L2.5,3c-1.6,1.6-1.6,4.1,0,5.7l4.2,4.2C7.5,13.6,8.5,14,9.5,14s2-0.4,2.8-1.2
				l0.7-0.7c0.4-0.4,0.4-1,0-1.4l-1.4-1.4C11.5,9.1,11.2,9,10.9,9c-0.3,0-0.5,0.1-0.7,0.3L9.9,9.7C9.8,9.8,9.7,9.8,9.5,9.8
				s-0.3,0-0.4-0.1L5.6,6.1C5.5,6,5.5,5.6,5.6,5.4L6,5.1c0.4-0.4,0.4-1,0-1.4L4.6,2.3C4.4,2.1,4.1,2,3.9,2L3.9,2z"/>
		</g>
	</g>
</g>
</svg>
