<?xml version="1.0" encoding="utf-8"?>
<!-- Generator: Adobe Illustrator 24.0.2, SVG Export Plug-In . SVG Version: 6.00 Build 0)  -->
<svg version="1.1" xmlns="http://www.w3.org/2000/svg" xmlns:xlink="http://www.w3.org/1999/xlink" x="0px" y="0px"
	 viewBox="0 0 16 16" style="enable-background:new 0 0 16 16;" xml:space="preserve">
<style type="text/css">
	.st0{opacity:0;clip-path:url(#SVGID_4_);}
	.st1{opacity:0.65;clip-path:url(#SVGID_6_);}
	.st2{opacity:0;clip-path:url(#SVGID_10_);}
	.st3{opacity:0.65;clip-path:url(#SVGID_12_);}
	.st4{opacity:0;clip-path:url(#SVGID_16_);}
	.st5{opacity:0.65;clip-path:url(#SVGID_18_);}
	.st6{opacity:0.65;clip-path:url(#SVGID_20_);}
	.st7{fill-opacity:0;}
	.st8{fill-rule:evenodd;clip-rule:evenodd;fill:#FFFFFF;fill-opacity:0;}
	.st9{fill-rule:evenodd;clip-rule:evenodd;}
	.st10{fill-rule:evenodd;clip-rule:evenodd;fill-opacity:0;}
	.st11{fill:#2C2C2C;}
	.st12{opacity:0;clip-path:url(#SVGID_22_);}
	.st13{clip-path:url(#SVGID_24_);enable-background:new    ;}
	.st14{clip-path:url(#SVGID_26_);}
	.st15{clip-path:url(#SVGID_28_);}
	.st16{clip-path:url(#SVGID_30_);}
	.st17{clip-path:url(#SVGID_32_);}
	.st18{opacity:0;clip-path:url(#SVGID_34_);}
	.st19{clip-path:url(#SVGID_36_);}
	.st20{clip-path:url(#SVGID_40_);fill:#FFFFFF;fill-opacity:0;}
	.st21{clip-path:url(#SVGID_42_);fill-opacity:0;}
	.st22{clip-path:url(#SVGID_44_);}
</style>
<g id="图层_1">
	<g id="Plus">
		<g id="plus">
			<rect id="矩形_1_" class="st7" width="16" height="16"/>
			<path id="形状_1_" d="M7.5,2.4h0.9c0.1,0,0.1,0,0.1,0.1v11c0,0.1,0,0.1-0.1,0.1H7.5c-0.1,0-0.1,0-0.1-0.1v-11
				C7.4,2.4,7.4,2.4,7.5,2.4z M2.8,7.4h10.5c0.1,0,0.1,0,0.1,0.1v0.9c0,0.1,0,0.1-0.1,0.1H2.8c-0.1,0-0.1,0-0.1-0.1V7.5
				C2.6,7.4,2.7,7.4,2.8,7.4z"/>
		</g>
	</g>
</g>
<g id="图层_2">
</g>
</svg>
