<?xml version="1.0" encoding="utf-8"?>
<!-- Generator: Adobe Illustrator 24.0.2, SVG Export Plug-In . SVG Version: 6.00 Build 0)  -->
<svg version="1.1" xmlns="http://www.w3.org/2000/svg" xmlns:xlink="http://www.w3.org/1999/xlink" x="0px" y="0px"
	 viewBox="0 0 16 16" style="enable-background:new 0 0 16 16;" xml:space="preserve">
<style type="text/css">
	.st0{opacity:0;clip-path:url(#SVGID_4_);}
	.st1{opacity:0.65;clip-path:url(#SVGID_6_);}
	.st2{opacity:0;clip-path:url(#SVGID_10_);}
	.st3{opacity:0.65;clip-path:url(#SVGID_12_);}
	.st4{opacity:0;clip-path:url(#SVGID_16_);}
	.st5{opacity:0.65;clip-path:url(#SVGID_18_);}
	.st6{opacity:0.65;clip-path:url(#SVGID_20_);}
	.st7{fill-opacity:0;}
	.st8{fill-rule:evenodd;clip-rule:evenodd;fill:#FFFFFF;fill-opacity:0;}
	.st9{fill-rule:evenodd;clip-rule:evenodd;}
	.st10{fill-rule:evenodd;clip-rule:evenodd;fill-opacity:0;}
	.st11{fill:#2C2C2C;}
	.st12{opacity:0;clip-path:url(#SVGID_22_);}
	.st13{clip-path:url(#SVGID_24_);enable-background:new    ;}
	.st14{clip-path:url(#SVGID_26_);}
	.st15{clip-path:url(#SVGID_28_);}
	.st16{clip-path:url(#SVGID_30_);}
	.st17{clip-path:url(#SVGID_32_);}
	.st18{opacity:0;clip-path:url(#SVGID_34_);}
	.st19{clip-path:url(#SVGID_36_);}
	.st20{clip-path:url(#SVGID_40_);fill:#FFFFFF;fill-opacity:0;}
	.st21{clip-path:url(#SVGID_42_);fill-opacity:0;}
	.st22{clip-path:url(#SVGID_44_);}
</style>
<g id="图层_1">
	<g>
		<defs>
			<rect id="SVGID_13_" width="16" height="16"/>
		</defs>
		<clipPath id="SVGID_2_">
			<use xlink:href="#SVGID_13_"  style="overflow:visible;"/>
		</clipPath>
	</g>
	<g id="seatch">
		<g id="search">
			<rect id="矩形" class="st7" width="16" height="16"/>
			<path id="形状" d="M14.2,13.4l-4.1-4.1c0.6-0.8,1-1.8,1-2.9c0-1.3-0.5-2.4-1.4-3.3C8.9,2.2,7.7,1.8,6.4,1.8
				C5.2,1.8,4,2.2,3.1,3.1C2.2,4,1.8,5.2,1.8,6.4c0,1.3,0.5,2.4,1.4,3.3c0.9,0.9,2.1,1.4,3.3,1.4c1,0,2-0.3,2.9-1l4.1,4.1
				c0,0.1,0.1,0.1,0.2,0l0.7-0.7C14.3,13.5,14.3,13.4,14.2,13.4z M8.9,8.9c-0.7,0.7-1.5,1-2.5,1c-0.9,0-1.8-0.4-2.5-1
				c-0.7-0.7-1-1.5-1-2.5S3.3,4.6,4,4c0.7-0.7,1.5-1,2.5-1c0.9,0,1.8,0.4,2.5,1c0.7,0.7,1,1.5,1,2.5S9.6,8.3,8.9,8.9z"/>
		</g>
	</g>
</g>
<g id="图层_2">
</g>
</svg>
