<?xml version="1.0" encoding="utf-8"?>
<!-- Generator: Adobe Illustrator 24.0.2, SVG Export Plug-In . SVG Version: 6.00 Build 0)  -->
<svg version="1.1" xmlns="http://www.w3.org/2000/svg" xmlns:xlink="http://www.w3.org/1999/xlink" x="0px" y="0px"
	 viewBox="0 0 16 16" style="enable-background:new 0 0 16 16;" xml:space="preserve">
<style type="text/css">
	.st0{opacity:0;clip-path:url(#SVGID_4_);}
	.st1{opacity:0.65;clip-path:url(#SVGID_6_);}
	.st2{opacity:0;clip-path:url(#SVGID_10_);}
	.st3{opacity:0.65;clip-path:url(#SVGID_12_);}
	.st4{opacity:0;clip-path:url(#SVGID_16_);}
	.st5{opacity:0.65;clip-path:url(#SVGID_18_);}
	.st6{opacity:0.65;clip-path:url(#SVGID_20_);}
	.st7{fill-opacity:0;}
	.st8{fill-rule:evenodd;clip-rule:evenodd;fill:#FFFFFF;fill-opacity:0;}
	.st9{fill-rule:evenodd;clip-rule:evenodd;}
	.st10{fill-rule:evenodd;clip-rule:evenodd;fill-opacity:0;}
	.st11{fill:#2C2C2C;}
	.st12{opacity:0;clip-path:url(#SVGID_22_);}
	.st13{clip-path:url(#SVGID_24_);enable-background:new    ;}
	.st14{clip-path:url(#SVGID_26_);}
	.st15{clip-path:url(#SVGID_28_);}
	.st16{clip-path:url(#SVGID_30_);}
	.st17{clip-path:url(#SVGID_32_);}
	.st18{opacity:0;clip-path:url(#SVGID_34_);}
	.st19{clip-path:url(#SVGID_36_);}
	.st20{clip-path:url(#SVGID_40_);fill:#FFFFFF;fill-opacity:0;}
	.st21{clip-path:url(#SVGID_42_);fill-opacity:0;}
	.st22{clip-path:url(#SVGID_44_);}
</style>
<g id="图层_1">
</g>
<g id="图层_2">
	<g id="setting">
		<g>
			<rect id="矩形_59_" class="st7" width="16" height="16"/>
			<path id="形状_29_" d="M14.4,9.8l-1-0.9c0-0.3,0.1-0.6,0.1-0.9s0-0.6-0.1-0.9l1-0.9c0.2-0.1,0.2-0.4,0.1-0.6l0,0
				c-0.3-0.8-0.7-1.5-1.2-2.2l0,0c-0.1-0.2-0.4-0.2-0.5-0.1l-1.3,0.5c-0.5-0.4-1-0.7-1.6-0.9L9.7,1.5c0-0.2-0.2-0.4-0.4-0.4l0,0
				C8.4,1,7.6,1,6.8,1.1l0,0c-0.2,0-0.4,0.2-0.4,0.4L6.1,2.9C5.5,3.1,5,3.4,4.5,3.7L3.2,3.3C3,3.2,2.8,3.3,2.7,3.4l0,0
				c-0.5,0.6-1,1.4-1.2,2.2l0,0c-0.1,0.2,0,0.4,0.1,0.6l1,0.9c0,0.3-0.1,0.6-0.1,0.9c0,0.3,0,0.6,0.1,0.9l-1,0.9
				c-0.2,0.1-0.2,0.4-0.1,0.6l0,0c0.3,0.8,0.7,1.5,1.2,2.2l0,0c0.1,0.2,0.4,0.2,0.5,0.1l1.3-0.5c0.5,0.4,1,0.7,1.5,0.9l0.2,1.3
				c0,0.2,0.2,0.4,0.4,0.4l0,0C7.2,15,7.6,15,8,15s0.8,0,1.2-0.1l0,0c0.2,0,0.4-0.2,0.4-0.4l0.2-1.3c0.6-0.2,1.1-0.5,1.6-0.9
				l1.3,0.5c0.2,0.1,0.4,0,0.5-0.1l0,0c0.5-0.6,1-1.4,1.2-2.2l0,0C14.7,10.1,14.6,9.9,14.4,9.8L14.4,9.8z M12.3,7.3
				c0,0.2,0.1,0.5,0.1,0.7s0,0.5-0.1,0.7l-0.1,0.6l1.2,1c-0.2,0.4-0.4,0.8-0.7,1.2L11.3,11l-0.5,0.4c-0.4,0.3-0.8,0.5-1.2,0.7
				l-0.6,0.2l-0.3,1.5c-0.4,0.1-0.9,0.1-1.3,0l-0.3-1.5l-0.6-0.2c-0.4-0.2-0.9-0.4-1.2-0.7L4.7,11l-1.5,0.5
				c-0.3-0.4-0.5-0.7-0.7-1.1l1.2-1L3.7,8.7c0-0.2-0.1-0.5-0.1-0.7c0-0.2,0-0.5,0.1-0.7l0.1-0.6l-1.2-1C2.8,5.2,3,4.9,3.3,4.5L4.7,5
				l0.5-0.4C5.6,4.3,6,4.1,6.5,3.9l0.6-0.2l0.3-1.5c0.4,0,0.9,0,1.3,0l0.3,1.5l0.6,0.2c0.4,0.2,0.9,0.4,1.2,0.7L11.3,5l1.5-0.5
				c0.3,0.4,0.5,0.7,0.7,1.2l-1.2,1L12.3,7.3z M8,5.1c-1.5,0-2.8,1.2-2.8,2.8s1.2,2.8,2.8,2.8s2.8-1.2,2.8-2.8S9.5,5.1,8,5.1z
				 M9.2,9.1C8.9,9.4,8.5,9.6,8,9.6c-0.5,0-0.9-0.2-1.2-0.5C6.4,8.8,6.2,8.3,6.2,7.8c0-0.5,0.2-0.9,0.5-1.2C7.1,6.3,7.5,6.1,8,6.1
				c0.5,0,0.9,0.2,1.2,0.5c0.3,0.3,0.5,0.8,0.5,1.2C9.8,8.3,9.6,8.8,9.2,9.1z"/>
		</g>
	</g>
</g>
</svg>
