<?xml version="1.0" encoding="utf-8"?>
<!-- Generator: Adobe Illustrator 24.0.2, SVG Export Plug-In . SVG Version: 6.00 Build 0)  -->
<svg version="1.1" xmlns="http://www.w3.org/2000/svg" xmlns:xlink="http://www.w3.org/1999/xlink" x="0px" y="0px"
	 viewBox="0 0 16 16" style="enable-background:new 0 0 16 16;" xml:space="preserve">
<style type="text/css">
	.st0{opacity:0;clip-path:url(#SVGID_2_);}
	.st1{opacity:0.65;clip-path:url(#SVGID_4_);}
	.st2{opacity:0;clip-path:url(#SVGID_6_);fill:#FFFFFF;}
	.st3{clip-path:url(#SVGID_8_);}
	.st4{clip-path:url(#SVGID_10_);}
	.st5{opacity:0;clip-path:url(#SVGID_12_);fill:#FFFFFF;}
	.st6{clip-path:url(#SVGID_14_);}
	.st7{clip-path:url(#SVGID_18_);}
	.st8{opacity:0;clip-path:url(#SVGID_20_);}
	.st9{opacity:0.65;clip-path:url(#SVGID_22_);}
	.st10{clip-path:url(#SVGID_26_);}
	.st11{opacity:0;clip-path:url(#SVGID_28_);}
	.st12{opacity:0.65;clip-path:url(#SVGID_30_);}
	.st13{opacity:0;clip-path:url(#SVGID_32_);}
	.st14{opacity:0.65;clip-path:url(#SVGID_34_);}
	.st15{opacity:0.65;clip-path:url(#SVGID_38_);}
	.st16{opacity:0;clip-path:url(#SVGID_44_);}
	.st17{opacity:0.65;clip-path:url(#SVGID_46_);}
	.st18{opacity:0;clip-path:url(#SVGID_48_);}
	.st19{opacity:0.65;clip-path:url(#SVGID_50_);}
	.st20{opacity:0;clip-path:url(#SVGID_52_);}
	.st21{opacity:0.65;clip-path:url(#SVGID_54_);}
	.st22{opacity:0;clip-path:url(#SVGID_56_);}
	.st23{opacity:0.65;clip-path:url(#SVGID_58_);}
	.st24{opacity:0;clip-path:url(#SVGID_60_);}
	.st25{opacity:0.65;clip-path:url(#SVGID_62_);}
	.st26{opacity:0;clip-path:url(#SVGID_64_);}
	.st27{clip-path:url(#SVGID_66_);}
	.st28{clip-path:url(#SVGID_68_);}
	.st29{clip-path:url(#SVGID_70_);}
	.st30{clip-path:url(#SVGID_72_);fill:#FFFFFF;}
	.st31{opacity:0;clip-path:url(#SVGID_74_);}
	.st32{opacity:0;clip-path:url(#SVGID_76_);}
	.st33{fill-rule:evenodd;clip-rule:evenodd;}
	.st34{opacity:0;clip-path:url(#SVGID_78_);}
	.st35{opacity:0.65;clip-path:url(#SVGID_80_);}
	.st36{opacity:0;clip-path:url(#SVGID_82_);}
	.st37{opacity:0.65;clip-path:url(#SVGID_84_);}
	.st38{opacity:0;clip-path:url(#SVGID_86_);}
	.st39{opacity:0.65;clip-path:url(#SVGID_88_);}
	.st40{opacity:0;clip-path:url(#SVGID_90_);}
	.st41{opacity:0.65;clip-path:url(#SVGID_92_);}
	.st42{opacity:0;clip-path:url(#SVGID_94_);}
	.st43{opacity:0;clip-path:url(#SVGID_96_);}
	.st44{opacity:0;clip-path:url(#SVGID_98_);}
	.st45{fill:#D60080;fill-opacity:0;}
	.st46{clip-path:url(#SVGID_100_);}
	.st47{fill:none;}
	.st48{clip-path:url(#SVGID_102_);enable-background:new    ;}
	.st49{clip-path:url(#SVGID_104_);}
	.st50{clip-path:url(#SVGID_106_);}
	.st51{clip-path:url(#SVGID_108_);}
	.st52{clip-path:url(#SVGID_110_);}
	.st53{clip-path:url(#SVGID_112_);enable-background:new    ;}
	.st54{clip-path:url(#SVGID_114_);}
	.st55{clip-path:url(#SVGID_116_);}
	.st56{clip-path:url(#SVGID_118_);}
	.st57{clip-path:url(#SVGID_120_);}
	.st58{fill:#2C2C2C;}
</style>
<g id="图层_1">
	<g>
		<defs>
			<rect id="SVGID_1_" width="16" height="16"/>
		</defs>
		<clipPath id="SVGID_2_">
			<use xlink:href="#SVGID_1_"  style="overflow:visible;"/>
		</clipPath>
		<rect x="-5" y="-5" class="st0" width="26" height="26"/>
	</g>
	<g>
		<defs>
			<path id="SVGID_3_" d="M8,8.3c-0.7,0-1.4-0.3-1.9-0.8C5.5,7.1,5.3,6.4,5.3,5.7c0-0.7,0.3-1.3,0.8-1.8C6.6,3.4,7.3,3.1,8,3.1
				c0.7,0,1.4,0.3,1.9,0.8c0.5,0.5,0.8,1.1,0.8,1.8c0,0.7-0.3,1.3-0.8,1.8C9.4,8.1,8.7,8.3,8,8.3z M13.5,11.8
				c-0.3-0.7-0.7-1.3-1.3-1.8c-0.6-0.5-1.2-0.9-1.9-1.2c0,0,0,0,0,0c1-0.7,1.6-1.8,1.6-3C12,3.7,10.2,2,8,2C5.8,2,4,3.7,4,5.7
				c0,1.2,0.6,2.4,1.6,3c0,0,0,0,0,0C4.9,9.1,4.3,9.5,3.8,10c-0.6,0.5-1,1.1-1.3,1.8C2.2,12.5,2,13.2,2,13.9C2,13.9,2.1,14,2.1,14h1
				c0.1,0,0.1-0.1,0.1-0.1c0-1.2,0.5-2.3,1.4-3.1C5.5,9.9,6.7,9.5,8,9.5s2.5,0.5,3.4,1.3c0.9,0.8,1.4,1.9,1.4,3.1
				c0,0.1,0.1,0.1,0.1,0.1h1c0.1,0,0.1-0.1,0.1-0.1C14,13.2,13.8,12.5,13.5,11.8z"/>
		</defs>
		<use xlink:href="#SVGID_3_"  style="overflow:visible;fill-rule:evenodd;clip-rule:evenodd;"/>
		<clipPath id="SVGID_4_">
			<use xlink:href="#SVGID_3_"  style="overflow:visible;"/>
		</clipPath>
		<rect x="-3.1" y="-2.8" class="st1" width="22.2" height="21.6"/>
	</g>
</g>
<g id="图层_2">
</g>
</svg>
